<?xml version="1.0" standalone="no"?><!DOCTYPE svg PUBLIC "-//W3C//DTD SVG 1.1//EN" "http://www.w3.org/Graphics/SVG/1.1/DTD/svg11.dtd"><svg class="icon" height="512" viewBox="0 0 1024 1024" version="1.1" xmlns="http://www.w3.org/2000/svg"><path d="M773.506411 341.611332c0-58.041928-46.543036-104.640222-104.640222-104.640222s-104.640222 46.598294-104.640222 104.640222c0 38.21844 21.459754 72.196299 52.319599 89.976244l0 15.686261c-1.075495 27.232225-12.003382 51.29834-32.958646 72.247464-20.946055 20.896936-45.010123 31.881105-72.193229 32.955576-43.430138 1.022283-77.458139 8.328689-104.640222 23.554462l0-249.082962c30.860868-17.779945 52.319599-51.247174 52.319599-89.976244 0-58.041928-46.547129-104.640222-104.640222-104.640222-58.094116 0-104.129592 46.598294-104.129592 104.640222 0 38.21844 21.459754 72.196299 52.320623 89.976244l0 343.250668c-30.861892 18.291598-52.320623 51.757804-52.320623 89.976244 0 58.042951 46.547129 104.640222 104.640222 104.640222 58.094116 0 104.641245-46.597271 104.641245-104.640222 0-27.743878-10.474562-52.320623-27.744901-71.122851 4.701069-3.169179 25.13854-21.459754 30.861892-24.62791 13.0799-5.722328 29.326932-8.889461 49.202609-8.889461 54.926984-2.607384 102.037954-23.555485 143.880945-65.400522 41.844014-41.847084 62.796208-103.617939 65.399499-157.982104l-1.075495 0C752.046656 413.297001 773.506411 379.829771 773.506411 341.611332L773.506411 341.611332zM354.943476 174.176948c34.540677 0 62.795185 28.766161 62.795185 62.794162s-28.818349 62.794162-62.795185 62.794162-62.794162-28.766161-62.794162-62.794162S320.966641 174.176948 354.943476 174.176948L354.943476 174.176948zM354.943476 823.481104c-34.538631 0-62.794162-28.768207-62.794162-62.796208 0-34.029024 28.816303-62.742996 62.794162-62.742996s62.795185 28.714995 62.795185 62.742996C417.739684 794.712897 388.921335 823.481104 354.943476 823.481104L354.943476 823.481104zM668.866189 404.918169c-34.539654 0-62.797231-28.767184-62.797231-62.795185s28.816303-62.742996 62.797231-62.742996c33.979906 0 62.796208 28.716019 62.796208 62.742996S702.846094 404.918169 668.866189 404.918169L668.866189 404.918169z" /></svg>